<?xml version="1.0" encoding="UTF-8"?>
<svg id="Layer_1" data-name="Layer 1" xmlns="http://www.w3.org/2000/svg" viewBox="0 0 537.25 200">
  <defs>
    <style>
      .cls-1 {
        fill: #fff;
      }

      .cls-2 {
        fill: #049e5e;
      }
    </style>
  </defs>
  <path class="cls-1" d="M515.47,8.38c.19,0,.28.09.28.28v1.55c0,.18-.09.26-.28.26h-3.8v11.12c0,.19-.09.28-.26.28h-1.74c-.18,0-.26-.09-.26-.28v-11.12h-3.81c-.19,0-.28-.09-.28-.26v-1.55c0-.19.09-.28.28-.28h9.87Z"/>
  <path class="cls-1" d="M517.41,21.88c-.18,0-.26-.09-.26-.28v-12.93c0-.19.09-.28.26-.28h2.06c.15,0,.25.07.3.21l2.3,4.29c.23.43.5.98.82,1.64.32.67.58,1.23.78,1.68h.08c.2-.45.46-1.01.78-1.68s.59-1.21.82-1.64l2.28-4.29c.08-.14.18-.21.32-.21h2.04c.19,0,.28.09.28.28v12.93c0,.19-.09.28-.28.28h-1.72c-.18,0-.26-.09-.26-.28v-3.8c0-1.49.05-3.46.15-5.93l-.06-.02c-.38.82-.94,1.98-1.7,3.49l-1.66,3.23c-.06.14-.17.21-.32.21h-1.44c-.15,0-.26-.07-.32-.21l-1.66-3.23c-.76-1.51-1.32-2.67-1.7-3.49l-.06.02c.1,2.47.15,4.44.15,5.93v3.8c0,.19-.09.28-.28.28h-1.72.02Z"/>
  <path class="cls-1" d="M118.38,189.73c-5.04,2.17-10.62,3.26-16.74,3.26s-11.3-1.1-16.22-3.31c-4.92-2.21-8.85-5.54-11.8-10-2.95-4.46-4.42-9.94-4.42-16.45v-26.51c0-6.51,1.41-11.99,4.24-16.45,2.83-4.46,6.64-7.77,11.45-9.94,4.8-2.17,10.11-3.26,15.93-3.26,4.88,0,9.78.68,14.71,2.04,4.92,1.36,9.32,3.27,13.2,5.75.62.47.93.97.93,1.51,0,.23-.12.54-.35.93l-5.81,8.02c-.31.54-.74.81-1.28.81-.31,0-.66-.12-1.05-.35-6.12-3.64-12.94-5.46-20.46-5.46-5.27,0-9.49,1.41-12.67,4.24-3.18,2.83-4.77,7-4.77,12.5v26.04c0,5.5,1.72,9.65,5.17,12.44,3.45,2.79,7.85,4.18,13.19,4.18,3.33,0,6.41-.44,9.24-1.34,2.83-.89,5.17-2.07,7.03-3.55v-17.67h-15.58c-1.09,0-1.63-.58-1.63-1.74v-9.07c0-1.16.54-1.74,1.63-1.74h27.67c1.08,0,1.63.58,1.63,1.74v32.67c0,.93-.19,1.55-.58,1.86-3.41,3.72-7.64,6.67-12.67,8.84h.01Z"/>
  <path class="cls-1" d="M191.96,191.6c-.85,0-1.51-.39-1.98-1.16l-20.35-29.18h-10.35v28.6c0,1.16-.54,1.74-1.63,1.74h-10.69c-1.09,0-1.63-.58-1.63-1.74v-79.63c0-1.16.54-1.74,1.63-1.74h26.97c9.53,0,16.95,2.35,22.26,7.03,5.31,4.69,7.96,11.18,7.96,19.47,0,6.35-1.68,11.66-5.06,15.93-3.37,4.26-8.12,7.21-14.24,8.84l21.27,29.76c.23.31.35.66.35,1.05,0,.7-.46,1.05-1.39,1.05h-13.14l.02-.02ZM159.3,121.38v27.32h14.65c5.42,0,9.43-1.1,12.03-3.31,2.6-2.21,3.89-5.64,3.89-10.29s-1.3-8.2-3.89-10.4c-2.6-2.21-6.61-3.31-12.03-3.31h-14.65Z"/>
  <path class="cls-1" d="M279.62,160.67c0,10.15-2.87,18.08-8.6,23.77-5.74,5.7-13.76,8.54-24.07,8.54s-18.33-2.85-24.06-8.54c-5.74-5.7-8.6-13.62-8.6-23.77v-21.39c0-10.15,2.87-18.06,8.6-23.72,5.73-5.66,13.76-8.49,24.06-8.49s18.33,2.83,24.07,8.49c5.73,5.66,8.6,13.56,8.6,23.72v21.39ZM228.58,160.67c0,6.2,1.55,10.93,4.65,14.18,3.1,3.26,7.67,4.88,13.72,4.88s10.62-1.63,13.72-4.88c3.1-3.26,4.65-7.98,4.65-14.18v-21.28c0-6.28-1.55-11.04-4.65-14.3-3.1-3.25-7.67-4.88-13.72-4.88s-10.62,1.63-13.72,4.88c-3.1,3.26-4.65,8.02-4.65,14.3v21.28h0Z"/>
  <path class="cls-1" d="M356.23,162.65c0,6.04-1.3,11.35-3.9,15.93-2.6,4.58-6.3,8.12-11.1,10.64-4.81,2.52-10.39,3.78-16.74,3.78s-11.8-1.26-16.57-3.78c-4.77-2.52-8.45-6.06-11.04-10.64-2.6-4.57-3.89-9.88-3.89-15.93v-52.43c0-1.16.58-1.74,1.74-1.74h10.81c1.16,0,1.74.58,1.74,1.74v51.62c0,5.81,1.49,10.29,4.48,13.43,2.98,3.14,7.23,4.71,12.73,4.71s9.78-1.57,12.85-4.71c3.06-3.14,4.59-7.61,4.59-13.43v-51.62c0-1.16.58-1.74,1.74-1.74h10.81c1.16,0,1.74.58,1.74,1.74v52.43h.01Z"/>
  <path class="cls-1" d="M403.43,108.47c9.14,0,16.29,2.52,21.45,7.56,5.15,5.04,7.73,11.97,7.73,20.81s-2.58,15.99-7.73,20.98c-5.15,5-12.3,7.5-21.45,7.5h-17.09v24.53c0,1.16-.54,1.74-1.63,1.74h-10.69c-1.09,0-1.63-.58-1.63-1.74v-79.63c0-1.16.54-1.74,1.63-1.74h29.41ZM401.8,152.3c5.66,0,9.82-1.26,12.5-3.78s4.01-6.41,4.01-11.68-1.34-9.14-4.01-11.63c-2.67-2.48-6.84-3.72-12.5-3.72h-15.46v30.81h15.46Z"/>
  <path class="cls-1" d="M64.89,81.92c-2.87,3.76-6.71,6.53-11.51,8.31-4.81,1.78-10.15,2.67-16.04,2.67s-10.79-.89-15.4-2.67c-4.61-1.78-9.36-4.61-14.24-8.49-.46-.46-.7-.93-.7-1.39,0-.39.12-.74.35-1.05l5.81-8.14c.31-.46.74-.7,1.28-.7.39,0,.74.12,1.05.35,3.95,2.87,7.73,5.04,11.33,6.51,3.6,1.47,7.3,2.25,11.1,2.33,4.65,0,8.62-.99,11.92-2.96,3.29-1.98,4.94-4.82,4.94-8.54,0-2.63-.81-4.75-2.44-6.34-1.63-1.59-3.72-2.81-6.28-3.66-2.56-.85-5.93-1.7-10.11-2.56-8.06-1.7-14.79-4.44-20.17-8.2-5.39-3.76-8.08-9.51-8.08-17.26s2.93-13.45,8.78-17.32c5.85-3.87,13.27-5.81,22.26-5.81,4.96,0,9.57.72,13.83,2.15,4.26,1.44,8.76,3.78,13.49,7.03.54.31.81.74.81,1.28,0,.31-.12.66-.35,1.05l-5.58,8.02c-.39.47-.81.7-1.28.7-.31,0-.7-.12-1.16-.35-6.59-4.26-13.52-6.51-20.81-6.74-4.96,0-8.84.91-11.63,2.73s-4.18,4.32-4.18,7.5c0,2.33.72,4.21,2.15,5.64,1.43,1.44,3.33,2.58,5.7,3.43,2.36.85,5.64,1.74,9.82,2.67,5.89,1.32,10.89,2.81,15,4.48s7.58,4.22,10.4,7.67c2.83,3.45,4.24,8,4.24,13.66s-1.44,10.25-4.3,14.01h0Z"/>
  <path class="cls-1" d="M94.77,89.76c0,1.16-.54,1.74-1.63,1.74h-10.69c-1.09,0-1.63-.58-1.63-1.74V10.13c0-1.16.54-1.74,1.63-1.74h10.69c1.08,0,1.63.58,1.63,1.74v79.63Z"/>
  <path class="cls-1" d="M113.14,91.51c-1.09,0-1.63-.58-1.63-1.74V10.13c0-1.16.54-1.74,1.63-1.74h12.67c.93,0,1.55.43,1.86,1.28l14.18,26.39c1.39,2.64,3.08,6.01,5.06,10.11,1.98,4.11,3.58,7.56,4.82,10.35h.46c1.24-2.79,2.85-6.24,4.82-10.35,1.98-4.11,3.66-7.48,5.06-10.11l14.07-26.39c.47-.85,1.12-1.28,1.98-1.28h12.56c1.16,0,1.74.58,1.74,1.74v79.63c0,1.16-.58,1.74-1.74,1.74h-10.58c-1.09,0-1.63-.58-1.63-1.74v-23.37c0-9.14.31-21.31.93-36.5l-.35-.12c-2.33,5.04-5.81,12.21-10.46,21.51l-10.23,19.88c-.39.85-1.05,1.28-1.98,1.28h-8.84c-.93,0-1.59-.43-1.98-1.28l-10.23-19.88c-4.65-9.3-8.14-16.47-10.46-21.51l-.35.12c.62,15.19.93,27.36.93,36.5v23.37c0,1.16-.58,1.74-1.74,1.74h-10.58,0Z"/>
  <path class="cls-1" d="M240.2,8.38c9.14,0,16.29,2.52,21.45,7.56,5.15,5.04,7.73,11.97,7.73,20.81s-2.58,15.99-7.73,20.98c-5.15,5-12.3,7.5-21.45,7.5h-17.09v24.53c0,1.16-.54,1.74-1.63,1.74h-10.69c-1.09,0-1.63-.58-1.63-1.74V10.13c0-1.16.54-1.74,1.63-1.74h29.41ZM238.57,52.21c5.66,0,9.82-1.26,12.5-3.78s4.01-6.41,4.01-11.68-1.34-9.14-4.01-11.63c-2.67-2.48-6.84-3.72-12.5-3.72h-15.46v30.81h15.46Z"/>
  <path class="cls-1" d="M281.93,91.51c-1.09,0-1.63-.58-1.63-1.74V10.13c0-1.16.54-1.74,1.63-1.74h10.81c1.08,0,1.63.58,1.63,1.74v68.47h34.18c1.16,0,1.74.54,1.74,1.63v9.53c0,1.16-.58,1.74-1.74,1.74h-46.62Z"/>
  <path class="cls-1" d="M352.85,89.76c0,1.16-.54,1.74-1.63,1.74h-10.69c-1.09,0-1.63-.58-1.63-1.74V10.13c0-1.16.54-1.74,1.63-1.74h10.69c1.08,0,1.63.58,1.63,1.74v79.63Z"/>
  <path class="cls-1" d="M455.51,91.51c-1.16,0-1.74-.58-1.74-1.74v-28.95l-26.74-50.34c-.16-.46-.23-.77-.23-.93,0-.77.5-1.16,1.51-1.16h12.21c.93,0,1.55.43,1.86,1.28l18.48,38.25,18.37-38.25c.31-.85.97-1.28,1.98-1.28h12.21c.93,0,1.39.39,1.39,1.16,0,0,0,.29-.06.53-.03.11-.17.4-.17.4l-26.62,50.57v28.72c0,1.16-.58,1.74-1.74,1.74h-10.71Z"/>
  <path class="cls-1" d="M420.63,8.39h-49.42c-1.08,0-1.62.58-1.62,1.74v79.64c0,1.15.55,1.74,1.62,1.74h10.71c1.08,0,1.62-.59,1.62-1.74V21.3h37.09c1.15,0,1.74-.55,1.74-1.64v-9.53c0-1.17-.59-1.74-1.74-1.74Z"/>
  <path class="cls-2" d="M422.36,42.02s0-.07.01-.1v-.09s-.01-.07-.02-.11c0-.02-.01-.04-.02-.06-.02-.04-.04-.08-.07-.12,0,0-.01-.02-.02-.03-.03-.04-.07-.08-.11-.11,0,0-.02,0-.02-.02-.04-.03-.08-.05-.13-.06-.02,0-.04,0-.06-.02-.04,0-.07,0-.11-.02h-.16l-3.39.57-29.16,4.97c-.57.09-.72.86-.22,1.17l12.09,7.24,1.55,14.02c.06.58.82.77,1.15.29l18.6-27.28s.06-.11.07-.14.02-.07.03-.1h-.01Z"/>
</svg>