<?xml version="1.0" encoding="UTF-8"?>
<svg id="Layer_1" data-name="Layer 1" xmlns="http://www.w3.org/2000/svg" viewBox="0 0 100 100">
  <defs>
    <style>
      .cls-1 {
        fill: #009e5e;
      }
    </style>
  </defs>
  <path class="cls-1" d="M97.47,11.99c.02-.09.03-.18.03-.28,0-.08,0-.17,0-.25-.01-.11-.04-.21-.07-.31-.02-.06-.04-.12-.06-.17-.05-.12-.12-.24-.2-.35-.02-.03-.04-.05-.06-.08-.09-.12-.2-.22-.32-.31-.02-.02-.04-.03-.07-.05-.11-.08-.23-.13-.36-.18-.06-.02-.11-.04-.17-.06-.1-.03-.2-.04-.31-.05-.1,0-.4,0-.45,0L3.97,25.5c-1.61.25-2.02,2.42-.61,3.28l33.97,20.35,4.36,39.38c.18,1.64,2.31,2.17,3.24.81L97.2,12.67c.04-.06.16-.32.19-.4.04-.1.07-.19.08-.29Z"/>
</svg>