<?xml version="1.0" encoding="UTF-8"?>
<svg id="Layer_1" data-name="Layer 1" xmlns="http://www.w3.org/2000/svg" viewBox="0 0 500 500">
  <defs>
    <style>
      .cls-1 {
        fill: #020202;
      }

      .cls-2 {
        fill: #049e5e;
      }
    </style>
  </defs>
  <g>
    <path class="cls-1" d="M462.33,171.19c.16,0,.24.08.24.24v1.33c0,.15-.08.22-.24.22h-3.27v9.57c0,.16-.08.24-.22.24h-1.5c-.15,0-.22-.08-.22-.24v-9.57h-3.28c-.16,0-.24-.08-.24-.22v-1.33c0-.16.08-.24.24-.24h8.49Z"/>
    <path class="cls-1" d="M464,182.8c-.15,0-.22-.08-.22-.24v-11.12c0-.16.08-.24.22-.24h1.77c.13,0,.22.06.26.18l1.98,3.69c.2.37.43.84.71,1.41.28.58.5,1.06.67,1.45h.07c.17-.39.4-.87.67-1.45s.51-1.04.71-1.41l1.96-3.69c.07-.12.15-.18.28-.18h1.75c.16,0,.24.08.24.24v11.12c0,.16-.08.24-.24.24h-1.48c-.15,0-.22-.08-.22-.24v-3.27c0-1.28.04-2.98.13-5.1l-.05-.02c-.33.71-.81,1.7-1.46,3l-1.43,2.78c-.05.12-.15.18-.28.18h-1.24c-.13,0-.22-.06-.28-.18l-1.43-2.78c-.65-1.3-1.14-2.3-1.46-3l-.05.02c.09,2.12.13,3.82.13,5.1v3.27c0,.16-.08.24-.24.24h-1.48.02Z"/>
  </g>
  <g>
    <path class="cls-1" d="M120.75,327.19c-4.34,1.87-9.14,2.8-14.4,2.8s-9.72-.95-13.95-2.85c-4.23-1.9-7.61-4.77-10.15-8.6-2.54-3.84-3.8-8.55-3.8-14.15v-22.8c0-5.6,1.21-10.31,3.65-14.15,2.43-3.84,5.71-6.68,9.85-8.55,4.13-1.87,8.7-2.8,13.7-2.8,4.2,0,8.41.58,12.65,1.75,4.23,1.17,8.02,2.81,11.35,4.95.53.4.8.83.8,1.3,0,.2-.1.46-.3.8l-5,6.9c-.27.46-.64.7-1.1.7-.27,0-.57-.1-.9-.3-5.26-3.13-11.13-4.7-17.6-4.7-4.53,0-8.16,1.21-10.9,3.65-2.74,2.43-4.1,6.02-4.1,10.75v22.4c0,4.73,1.48,8.3,4.45,10.7,2.97,2.4,6.75,3.6,11.35,3.6,2.86,0,5.51-.38,7.95-1.15,2.43-.77,4.45-1.78,6.05-3.05v-15.2h-13.4c-.94,0-1.4-.5-1.4-1.5v-7.8c0-1,.46-1.5,1.4-1.5h23.8c.93,0,1.4.5,1.4,1.5v28.1c0,.8-.16,1.33-.5,1.6-2.93,3.2-6.57,5.74-10.9,7.6h0Z"/>
    <path class="cls-1" d="M184.04,328.8c-.73,0-1.3-.34-1.7-1l-17.51-25.1h-8.9v24.6c0,1-.46,1.5-1.4,1.5h-9.2c-.94,0-1.4-.5-1.4-1.5v-68.5c0-1,.46-1.5,1.4-1.5h23.2c8.2,0,14.58,2.02,19.15,6.05,4.57,4.03,6.85,9.62,6.85,16.75,0,5.46-1.45,10.03-4.35,13.7-2.9,3.66-6.98,6.2-12.25,7.6l18.3,25.6c.2.27.3.57.3.9,0,.6-.4.9-1.2.9h-11.3l.02-.02ZM155.95,268.39v23.5h12.6c4.66,0,8.11-.95,10.35-2.85,2.24-1.9,3.35-4.85,3.35-8.85s-1.12-7.05-3.35-8.95c-2.24-1.9-5.69-2.85-10.35-2.85h-12.6Z"/>
    <path class="cls-1" d="M259.45,302.19c0,8.73-2.47,15.55-7.4,20.45-4.94,4.9-11.84,7.35-20.71,7.35s-15.77-2.45-20.7-7.35c-4.94-4.9-7.4-11.72-7.4-20.45v-18.4c0-8.73,2.47-15.54,7.4-20.4,4.93-4.87,11.84-7.3,20.7-7.3s15.77,2.43,20.71,7.3c4.93,4.87,7.4,11.66,7.4,20.4v18.4ZM215.54,302.19c0,5.33,1.33,9.4,4,12.2,2.67,2.8,6.6,4.2,11.8,4.2s9.14-1.4,11.8-4.2c2.67-2.8,4-6.86,4-12.2v-18.31c0-5.4-1.33-9.5-4-12.3-2.67-2.8-6.6-4.2-11.8-4.2s-9.14,1.4-11.8,4.2c-2.67,2.8-4,6.9-4,12.3v18.31h0Z"/>
    <path class="cls-1" d="M325.35,303.89c0,5.2-1.12,9.76-3.35,13.7-2.24,3.94-5.42,6.98-9.55,9.15-4.14,2.17-8.94,3.25-14.4,3.25s-10.15-1.08-14.25-3.25c-4.1-2.17-7.27-5.21-9.5-9.15-2.24-3.93-3.35-8.5-3.35-13.7v-45.1c0-1,.5-1.5,1.5-1.5h9.3c1,0,1.5.5,1.5,1.5v44.4c0,5,1.28,8.85,3.85,11.55,2.56,2.7,6.22,4.05,10.95,4.05s8.41-1.35,11.05-4.05c2.63-2.7,3.95-6.55,3.95-11.55v-44.4c0-1,.5-1.5,1.5-1.5h9.3c1,0,1.5.5,1.5,1.5v45.1h0Z"/>
    <path class="cls-1" d="M365.95,257.29c7.86,0,14.01,2.17,18.45,6.5,4.43,4.34,6.65,10.3,6.65,17.9s-2.22,13.75-6.65,18.05c-4.43,4.3-10.58,6.45-18.45,6.45h-14.7v21.1c0,1-.46,1.5-1.4,1.5h-9.2c-.94,0-1.4-.5-1.4-1.5v-68.5c0-1,.46-1.5,1.4-1.5h25.3ZM364.55,294.99c4.87,0,8.45-1.08,10.75-3.25s3.45-5.51,3.45-10.05-1.15-7.86-3.45-10c-2.3-2.13-5.88-3.2-10.75-3.2h-13.3v26.5h13.3Z"/>
  </g>
  <path class="cls-1" d="M74.74,234.45c-2.47,3.23-5.77,5.62-9.9,7.15-4.14,1.53-8.73,2.3-13.8,2.3s-9.28-.77-13.25-2.3c-3.97-1.53-8.05-3.97-12.25-7.3-.4-.4-.6-.8-.6-1.2,0-.34.1-.64.3-.9l5-7c.27-.4.64-.6,1.1-.6.34,0,.64.1.9.3,3.4,2.47,6.65,4.34,9.75,5.6,3.1,1.26,6.28,1.94,9.55,2,4,0,7.42-.85,10.25-2.55,2.83-1.7,4.25-4.15,4.25-7.35,0-2.26-.7-4.09-2.1-5.45-1.4-1.37-3.2-2.42-5.4-3.15-2.2-.73-5.1-1.46-8.7-2.2-6.93-1.46-12.72-3.82-17.35-7.05-4.64-3.23-6.95-8.18-6.95-14.85s2.52-11.57,7.55-14.9c5.03-3.33,11.42-5,19.15-5,4.27,0,8.23.62,11.9,1.85,3.66,1.24,7.54,3.25,11.6,6.05.46.27.7.64.7,1.1,0,.27-.1.57-.3.9l-4.8,6.9c-.34.4-.7.6-1.1.6-.27,0-.6-.1-1-.3-5.67-3.66-11.63-5.6-17.9-5.8-4.27,0-7.6.78-10,2.35s-3.6,3.72-3.6,6.45c0,2,.62,3.62,1.85,4.85,1.23,1.24,2.86,2.22,4.9,2.95,2.03.73,4.85,1.5,8.45,2.3,5.07,1.14,9.37,2.42,12.9,3.85s6.52,3.63,8.95,6.6c2.43,2.97,3.65,6.88,3.65,11.75s-1.24,8.82-3.7,12.05h0Z"/>
  <path class="cls-1" d="M100.44,241.19c0,1-.46,1.5-1.4,1.5h-9.2c-.94,0-1.4-.5-1.4-1.5v-68.5c0-1,.46-1.5,1.4-1.5h9.2c.93,0,1.4.5,1.4,1.5v68.5Z"/>
  <path class="cls-1" d="M116.24,242.7c-.94,0-1.4-.5-1.4-1.5v-68.51c0-1,.46-1.5,1.4-1.5h10.9c.8,0,1.33.37,1.6,1.1l12.2,22.7c1.2,2.27,2.65,5.17,4.35,8.7,1.7,3.54,3.08,6.5,4.15,8.9h.4c1.07-2.4,2.45-5.37,4.15-8.9,1.7-3.54,3.15-6.43,4.35-8.7l12.1-22.7c.4-.73.96-1.1,1.7-1.1h10.8c1,0,1.5.5,1.5,1.5v68.5c0,1-.5,1.5-1.5,1.5h-9.1c-.94,0-1.4-.5-1.4-1.5v-20.1c0-7.86.27-18.33.8-31.4l-.3-.1c-2,4.34-5,10.5-9,18.5l-8.8,17.1c-.34.73-.9,1.1-1.7,1.1h-7.6c-.8,0-1.37-.37-1.7-1.1l-8.8-17.1c-4-8-7-14.17-9-18.5l-.3.1c.53,13.07.8,23.54.8,31.4v20.1c0,1-.5,1.5-1.5,1.5h-9.1,0Z"/>
  <path class="cls-1" d="M225.54,171.19c7.86,0,14.01,2.17,18.45,6.5,4.43,4.34,6.65,10.3,6.65,17.9s-2.22,13.75-6.65,18.05c-4.43,4.3-10.58,6.45-18.45,6.45h-14.7v21.1c0,1-.46,1.5-1.4,1.5h-9.2c-.94,0-1.4-.5-1.4-1.5v-68.5c0-1,.46-1.5,1.4-1.5h25.3ZM224.14,208.89c4.87,0,8.45-1.08,10.75-3.25s3.45-5.51,3.45-10.05-1.15-7.86-3.45-10c-2.3-2.13-5.88-3.2-10.75-3.2h-13.3v26.5h13.3Z"/>
  <path class="cls-1" d="M261.44,242.7c-.94,0-1.4-.5-1.4-1.5v-68.51c0-1,.46-1.5,1.4-1.5h9.3c.93,0,1.4.5,1.4,1.5v58.9h29.4c1,0,1.5.46,1.5,1.4v8.2c0,1-.5,1.5-1.5,1.5h-40.1Z"/>
  <path class="cls-1" d="M322.44,241.19c0,1-.46,1.5-1.4,1.5h-9.2c-.94,0-1.4-.5-1.4-1.5v-68.5c0-1,.46-1.5,1.4-1.5h9.2c.93,0,1.4.5,1.4,1.5v68.5Z"/>
  <path class="cls-1" d="M410.75,242.7c-1,0-1.5-.5-1.5-1.5v-24.9l-23-43.3c-.14-.4-.2-.66-.2-.8,0-.66.43-1,1.3-1h10.5c.8,0,1.33.37,1.6,1.1l15.9,32.9,15.8-32.9c.27-.73.83-1.1,1.7-1.1h10.5c.8,0,1.2.34,1.2,1,0,0,0,.25-.05.46-.03.09-.15.34-.15.34l-22.9,43.5v24.71c0,1-.5,1.5-1.5,1.5h-9.21Z"/>
  <g>
    <path class="cls-1" d="M380.75,171.2h-42.51c-.93,0-1.39.5-1.39,1.5v68.51c0,.99.47,1.5,1.39,1.5h9.21c.93,0,1.39-.51,1.39-1.5v-58.9h31.91c.99,0,1.5-.47,1.5-1.41v-8.2c0-1.01-.51-1.5-1.5-1.5Z"/>
    <path class="cls-2" d="M382.24,200.12s0-.06,0-.09v-.08s0-.06-.02-.09c0-.02,0-.03-.02-.05-.02-.03-.03-.07-.06-.1,0,0,0-.02-.02-.03-.03-.03-.06-.07-.09-.09,0,0-.02,0-.02-.02-.03-.03-.07-.04-.11-.05-.02,0-.03,0-.05-.02-.03,0-.06,0-.09-.02h-.14l-2.92.49-25.08,4.28c-.49.08-.62.74-.19,1.01l10.4,6.23,1.33,12.06c.05.5.71.66.99.25l16-23.47s.05-.09.06-.12.02-.06.03-.09h0Z"/>
  </g>
</svg>